<?xml version="1.0" ?><svg height="80px" id="Layer_1" style="enable-background:new 0 0 80 80;" version="1.1" viewBox="0 0 80 80" width="80px" xml:space="preserve" xmlns="http://www.w3.org/2000/svg" xmlns:xlink="http://www.w3.org/1999/xlink"><style type="text/css">
	.st0{fill:#CDDC39;}
	.st1{fill:#FAFAFA;}
	.st2{fill:#263238;}
	.st3{fill:#455A64;}
	.st4{fill:#BDBDBD;}
	.st5{fill:#2196F3;}
	.st6{fill:#3F51B5;}
	.st7{fill:#F44336;}
	.st8{fill:#FF9800;}
</style><g><circle class="st0" cx="40" cy="40" r="40"/><g><g><path class="st1" d="M52,16H28c-1.1,0-2,0.9-2,2v44c0,1.1,0.9,2,2,2h24c1.1,0,2-0.9,2-2V18C54,16.9,53.1,16,52,16z M52,58H28V22     h24V58z"/><rect class="st2" height="36" width="24" x="28" y="22"/><polygon class="st3" points="52,22 28,22 28,54 52,26    "/><path class="st4" d="M44,20h-8c-0.55,0-1-0.45-1-1v0c0-0.55,0.45-1,1-1h8c0.55,0,1,0.45,1,1v0C45,19.55,44.55,20,44,20z"/><circle class="st4" cx="40" cy="61.1667" r="2"/><circle class="st1" cx="40" cy="61.1667" r="1"/></g><path class="st5" d="M36,34H24c-1.1,0-2,0.9-2,2v8c0,1.1,0.9,2,2,2h6l4,4l-0.0001-4H36c1.1,0,2-0.9,2-2v-8C38,34.9,37.1,34,36,34z    "/><path class="st6" d="M42,30h12c1.1,0,2,0.9,2,2v8c0,1.1-0.9,2-2,2h-6l-4,4l0.0001-4H42c-1.1,0-2-0.9-2-2v-8C40,30.9,40.9,30,42,30    z"/><path class="st7" d="M30,20H18c-1.1,0-2,0.9-2,2v8c0,1.1,0.9,2,2,2h6l4,4l-0.0001-4H30c1.1,0,2-0.9,2-2v-8C32,20.9,31.1,20,30,20z    "/><path class="st8" d="M50,16h12c1.1,0,2,0.9,2,2v8c0,1.1-0.9,2-2,2h-6l-4,4l0.0001-4H50c-1.1,0-2-0.9-2-2v-8C48,16.9,48.9,16,50,16    z"/><path class="st1" d="M34.6406,39.5419c0.674-0.0556,1.131-0.362,1.307-0.7777    c-0.2432,0.1494-0.9979,0.3121-1.4146,0.157c-0.0206-0.0979-0.0432-0.1909-0.0656-0.2749    c-0.3177-1.1661-1.4049-2.1056-2.5443-1.9922c0.0922-0.0372,0.1857-0.0719,0.2789-0.103    c0.1253-0.0449,0.8612-0.1647,0.7453-0.4243c-0.0979-0.2284-0.9966,0.1727-1.1659,0.2251c0.2234-0.084,0.593-0.2285,0.6325-0.4853    c-0.3424,0.0469-0.6784,0.2089-0.938,0.4441c0.0937-0.1009,0.1648-0.2238,0.1799-0.3563    c-0.9133,0.5832-1.4466,1.7591-1.8781,2.8999c-0.3391-0.3284-0.6393-0.5871-0.9089-0.7307    c-0.756-0.4055-1.6599-0.8284-3.0789-1.3552c-0.0435,0.4695,0.2323,1.0937,1.0266,1.5089    c-0.1721-0.0231-0.4867,0.0284-0.7385,0.0887c0.1026,0.5379,0.4372,0.981,1.344,1.1952    c-0.4143,0.0273-0.6284,0.1216-0.8224,0.3247c0.1885,0.374,0.649,0.8143,1.4771,0.7238c-0.9206,0.3969-0.3753,1.132,0.374,1.0223    c-1.2781,1.3203-3.2935,1.2234-4.4508,0.1191c3.0216,4.1172,9.5896,2.4349,10.5682-1.5309    c0.7333,0.0063,1.1646-0.254,1.4318-0.5409C35.5776,39.7512,34.9654,39.6771,34.6406,39.5419z" id="Twitter__x28_alt_x29__2_"/><path class="st1" d="M52,33.3334C52,32.6328,51.3675,32,50.6668,32h-5.3332    C44.6325,32,44,32.6328,44,33.3334v5.3332C44,39.3672,44.6325,40,45.3335,40H48v-3.0222h-0.9778v-1.3333H48V35.125    c0-0.8959,0.6729-1.7028,1.5-1.7028h1.0778v1.3333H49.5c-0.1179,0-0.2556,0.1432-0.2556,0.3577v0.5312h1.3333v1.3333h-1.3333V40    h1.4223C51.3675,40,52,39.3672,52,38.6666V33.3334z" id="Facebook__x28_alt_x29__3_"/><path class="st1" d="M26.454,22h-4.908c-0.8525,0-1.5461,0.6934-1.5461,1.5459v1.6331v3.275c0,0.8525,0.6936,1.5459,1.5461,1.5459    h4.9081c0.8525,0,1.5459-0.6934,1.5459-1.5459v-3.2752v-1.6331C27.9999,22.6933,27.3065,22,26.454,22z M26.8974,22.9219    l0.1769-0.0006v0.1761v1.1799l-1.3515,0.0044l-0.0047-1.3558L26.8974,22.9219z M22.8581,25.1789    c0.2563-0.3545,0.672-0.5871,1.1419-0.5871c0.4699,0,0.8856,0.2325,1.1415,0.5871c0.1667,0.2314,0.2666,0.5145,0.2666,0.8211    c0,0.7764-0.6323,1.408-1.4083,1.408c-0.7765,0-1.4081-0.6316-1.4081-1.408C22.5919,25.6933,22.6914,25.4103,22.8581,25.1789z     M27.2205,28.4539c0,0.423-0.3439,0.7665-0.7665,0.7665h-4.908c-0.4228,0-0.7667-0.3436-0.7667-0.7665v-3.275h1.1941    c-0.1031,0.2537-0.161,0.5308-0.161,0.8211c0,1.2059,0.9811,2.1877,2.1876,2.1877c1.2063,0,2.1874-0.9818,2.1874-2.1877    c0-0.2903-0.0583-0.5674-0.1614-0.8211h1.1945V28.4539z"/><path class="st1" d="M53.8134,24.1839c0.1938,0.1935,0.3116,0.4561,0.3123,0.7484    c-0.0007,0.2918-0.1186,0.5544-0.3116,0.7472l-0.0007,0.0003c-0.1934,0.1925-0.4576,0.3102-0.7514,0.3102    c-0.2934,0-0.5569-0.1181-0.7503-0.3106C52.1187,25.4868,52,25.2246,52,24.9324c0-0.2924,0.1187-0.5556,0.3116-0.7487v0.0003    c0.1934-0.1927,0.4569-0.3113,0.7503-0.3113C53.3557,23.8726,53.6196,23.9915,53.8134,24.1839z M53.8134,24.1837v0.0003    c0.0003,0,0.0003,0,0.0003,0L53.8134,24.1837z M52.3116,25.6799v-0.0003c-0.0003,0-0.0003,0-0.0003,0L52.3116,25.6799z     M52.0009,20.7203v1.5275c0.9972,0.0006,1.9404,0.3924,2.6464,1.0993c0.7057,0.7047,1.0958,1.6493,1.0974,2.65h0.0005V26h1.5339    c-0.0012-1.4551-0.5927-2.7732-1.549-3.7301C54.7736,21.3131,53.4561,20.7213,52.0009,20.7203z M52.0036,18v1.5268    c3.5648,0.0026,6.4627,2.905,6.4651,6.4732H60c-0.001-2.2053-0.8974-4.2034-2.346-5.653    C56.2049,18.8978,54.2082,18.001,52.0036,18z" id="RSS_2_"/></g></g></svg>